<svg width="24" height="24" viewBox="0 0 22 20" fill="none" xmlns="http://www.w3.org/2000/svg">
<path fill-rule="evenodd" clip-rule="evenodd" d="M8.7019 3.35882C9.38356 2.67716 9.84258 2.22039 10.2301 1.92475C10.6002 1.64232 10.8157 1.57849 11 1.57849C11.1843 1.57849 11.3998 1.64232 11.7699 1.92475C12.1574 2.22039 12.6164 2.67716 13.2981 3.35882L15.4697 5.53039L15.7123 5.77303C16.6227 6.68339 16.9207 7.00023 17.0787 7.38166C17.2367 7.7631 17.25 8.1979 17.25 9.48534V13.0001C17.25 14.4355 17.2484 15.4366 17.1469 16.1919C17.0482 16.9257 16.8678 17.3143 16.591 17.5911C16.3142 17.8678 15.9257 18.0483 15.1919 18.1469C14.4365 18.2485 13.4354 18.2501 12 18.2501H10C8.56458 18.2501 7.56347 18.2485 6.80812 18.1469C6.07434 18.0483 5.68577 17.8678 5.40901 17.5911C5.13225 17.3143 4.9518 16.9257 4.85315 16.1919C4.75159 15.4366 4.75 14.4355 4.75 13.0001V9.48534C4.75 8.1979 4.76328 7.7631 4.92127 7.38166C5.0788 7.00135 5.37558 6.68526 6.27968 5.78104C6.28235 5.77837 6.28502 5.77571 6.28769 5.77303L6.53033 5.53039C6.53049 5.53023 6.53065 5.53007 6.53081 5.52991L8.7019 3.35882ZM5.47015 4.46925L7.64124 2.29816L7.67801 2.26139C8.31331 1.62605 8.84307 1.09625 9.32019 0.732222C9.82379 0.347987 10.3559 0.0784882 11 0.0784882C11.6441 0.0784882 12.1762 0.347987 12.6798 0.732222C13.1569 1.09625 13.6867 1.62604 14.322 2.26138L14.3588 2.29816L16.5296 4.46903C16.5299 4.46926 16.5301 4.4695 16.5303 4.46973L16.773 4.71237L16.7745 4.7139L16.8738 4.81318C16.9389 4.87815 17.0022 4.94145 17.0639 5.00331L21.5303 9.46973C21.8232 9.76262 21.8232 10.2375 21.5303 10.5304C21.2374 10.8233 20.7626 10.8233 20.4697 10.5304L18.7488 8.80956C18.7502 8.97838 18.7501 9.15565 18.75 9.34274L18.75 9.48534V13.0001V13.0549C18.75 14.4225 18.75 15.5248 18.6335 16.3918C18.5125 17.2919 18.2536 18.0498 17.6516 18.6517C17.0497 19.2536 16.2919 19.5125 15.3918 19.6335C14.5248 19.7501 13.4225 19.7501 12.0549 19.7501H12H10H9.94513C8.57754 19.7501 7.47522 19.7501 6.60825 19.6335C5.70814 19.5125 4.95027 19.2536 4.34835 18.6517C3.74643 18.0498 3.48754 17.2919 3.36652 16.3918C3.24996 15.5248 3.24998 14.4225 3.25 13.0549L3.25 13.0001V9.48534L3.24995 9.34274C3.24987 9.15565 3.24978 8.97838 3.25116 8.80956L1.53033 10.5304C1.23744 10.8233 0.762563 10.8233 0.46967 10.5304C0.176777 10.2375 0.176777 9.76262 0.46967 9.46973L4.93593 5.00347C4.99765 4.94156 5.06107 4.87821 5.12616 4.81318L5.12616 4.81318L5.22625 4.71315L5.22703 4.71237L5.46967 4.46973C5.46983 4.46957 5.46999 4.46941 5.47015 4.46925Z" fill="#5B5EA6"/>
</svg>
